<svg version="1.1" xmlns="http://www.w3.org/2000/svg" xmlns:xlink="http://www.w3.org/1999/xlink" width="512.000000pt" height="512.000000pt" viewBox="0,0,255.98958,255.98958"><g fill="#0e867c" fill-rule="nonzero" stroke="none" stroke-width="1" stroke-linecap="butt" stroke-linejoin="miter" stroke-miterlimit="10" stroke-dasharray="" stroke-dashoffset="0" font-family="none" font-weight="none" font-size="none" text-anchor="none" style="mix-blend-mode: normal"><g transform="translate(0.01635,0.53963) scale(0.5,0.5)"><g transform="translate(0,512) scale(0.1,-0.1)"><path d="M2236,4239c-269,-28 -480,-99 -643,-215c-109,-78 -189,-201 -216,-332c-7,-34 -15,-63 -18,-66c-3,-3 -45,-17 -94,-31c-402,-117 -638,-401 -696,-840c-12,-92 -7,-352 9,-408l7,-28l47,56c50,60 58,58 58,-19c0,-83 30,-363 56,-516c45,-270 118,-523 209,-716c44,-96 132,-240 141,-231c3,2 -7,51 -21,107c-70,277 -97,475 -97,725c-1,267 38,455 130,630c54,102 192,238 294,289l77,39l66,-42c167,-106 364,-186 581,-237c111,-26 134,-28 334,-29c190,0 227,3 320,23c126,28 261,78 391,142c143,72 222,93 328,88c74,-3 98,-9 162,-39c196,-94 331,-328 413,-717c32,-149 62,-385 70,-542c11,-200 18,-272 26,-263c18,18 120,235 155,327c90,243 128,456 129,723c1,101 3,183 6,183c3,0 22,-47 43,-103c52,-139 59,-147 51,-62c-24,288 -64,503 -129,700c-200,610 -595,994 -1150,1118l-110,24l55,17c110,33 208,47 299,44c49,-2 87,0 83,4c-32,30 -340,126 -497,154c-142,25 -410,25 -525,0c-96,-21 -202,-57 -273,-93c-27,-13 -50,-23 -52,-21c-1,2 -6,18 -10,36c-6,31 -3,37 39,78c45,42 54,55 39,53c-5,-1 -43,-5 -87,-10z"></path></g></g></g></svg>