<svg version="1.1" xmlns="http://www.w3.org/2000/svg" xmlns:xlink="http://www.w3.org/1999/xlink" width="512.000000pt" height="512.000000pt" viewBox="0,0,255.98958,255.98958"><g fill="#0e867c" fill-rule="nonzero" stroke="none" stroke-width="1" stroke-linecap="butt" stroke-linejoin="miter" stroke-miterlimit="10" stroke-dasharray="" stroke-dashoffset="0" font-family="none" font-weight="none" font-size="none" text-anchor="none" style="mix-blend-mode: normal"><g transform="translate(0.00018,-0.0072) scale(0.5,0.5)"><g transform="translate(0,512) scale(0.1,-0.1)"><path d="M856,5099l-26,-20v-229v-228l-44,-83c-134,-252 -123,-538 29,-775c52,-81 155,-186 246,-250l76,-53l29,-168c25,-142 29,-194 29,-338c-1,-244 -30,-343 -175,-604c-44,-79 -80,-156 -80,-171c0,-56 75,-90 118,-53c23,21 148,244 191,342c40,90 77,220 92,321c16,111 6,344 -20,484c-12,60 -19,111 -18,113c6,6 162,-31 168,-40c4,-5 12,-50 19,-101c13,-101 27,-130 65,-140c34,-9 83,18 91,48c3,14 1,56 -5,95c-6,38 -11,77 -11,85c0,14 64,16 611,16c371,0 617,4 628,10c10,5 24,22 30,39c10,24 10,34 -3,60c-9,17 -26,33 -39,36c-12,3 -335,6 -717,8c-764,3 -731,1 -876,67c-207,94 -367,283 -409,485c-19,90 -19,148 1,243c33,165 126,299 251,365c169,88 320,96 527,26c113,-38 133,-39 164,-4c25,30 24,65 -5,97c-41,46 -260,99 -408,100c-143,0 -244,-28 -397,-110c-4,-2 -8,67 -10,153c-3,151 -4,158 -27,176c-30,25 -62,24 -95,-2z"></path><path d="M4169,5101c-23,-18 -24,-25 -27,-179l-3,-159l-64,34c-103,54 -200,76 -345,75c-211,0 -386,-60 -620,-212c-173,-113 -319,-165 -496,-177c-161,-11 -358,34 -499,112c-72,41 -83,42 -119,14c-33,-26 -36,-79 -5,-110c34,-34 200,-108 306,-136c87,-23 117,-26 263,-26c146,0 176,3 263,26c119,32 251,93 376,176c116,76 214,123 328,157c126,38 284,38 395,2c188,-62 284,-176 338,-400c24,-100 25,-145 4,-245c-47,-227 -215,-417 -442,-500c-119,-44 -196,-53 -443,-53h-230l-24,-25c-32,-31 -32,-69 0,-100c24,-25 27,-25 195,-25c147,0 170,-2 170,-16c0,-8 -5,-47 -11,-85c-6,-39 -8,-81 -5,-95c8,-30 57,-57 91,-48c38,9 51,38 64,134c16,113 19,120 44,120c13,0 47,6 77,14c30,8 57,13 59,10c2,-2 -7,-66 -20,-141c-29,-170 -31,-384 -5,-508c41,-193 74,-270 263,-604c145,-255 228,-416 267,-519l16,-42h-130h-130l-52,77c-94,138 -132,160 -183,108c-34,-33 -31,-61 10,-122c19,-29 35,-55 35,-58c0,-3 -594,-5 -1320,-5c-726,0 -1320,2 -1320,5c0,3 16,29 35,58c41,61 44,89 10,122c-51,52 -89,30 -183,-108l-52,-77h-125c-69,0 -125,4 -125,9c0,11 60,160 94,231c31,67 32,80 5,114c-25,32 -79,36 -107,8c-27,-27 -112,-235 -170,-413c-59,-181 -96,-352 -118,-545c-29,-250 -10,-662 42,-907c13,-61 79,-87 122,-47c28,26 28,58 1,220c-33,198 -37,735 -6,766c8,8 476,-55 565,-76c294,-70 547,-217 736,-429c84,-95 113,-139 191,-296c65,-129 74,-141 119,-170l49,-30h237h237l49,30c45,29 54,41 119,171c77,153 91,175 177,281c67,83 75,118 32,152c-41,32 -72,27 -117,-21c-87,-91 -183,-240 -231,-358c-46,-110 -45,-110 -265,-110c-165,0 -192,2 -210,18c-12,9 -39,57 -61,105c-59,134 -160,278 -275,392c-172,171 -362,288 -590,364c-148,49 -217,63 -470,95c-110,15 -216,29 -236,32l-37,5l18,82c10,45 24,103 31,130l13,47h1817h1818l15,-53c21,-73 47,-199 42,-204c-2,-2 -107,-17 -232,-34c-292,-37 -372,-52 -501,-94c-109,-36 -285,-119 -340,-161c-57,-43 -53,-109 8,-134c31,-13 19,-18 169,63c100,53 232,101 350,127c104,23 569,84 577,76c4,-3 8,-109 11,-235c5,-241 -3,-364 -40,-580c-15,-94 -18,-129 -9,-147c22,-50 96,-56 125,-11c16,25 49,212 67,385c17,169 7,544 -20,702c-66,386 -148,599 -406,1055c-243,429 -277,527 -278,790c-1,131 12,235 59,466c4,19 22,37 65,64c169,104 305,286 361,482c17,61 22,103 22,193c-1,134 -27,238 -94,370l-40,80v229v230l-26,20c-33,26 -65,27 -95,2z"></path><path d="M1553,2890c-34,-14 -40,-35 -54,-189l-13,-144l28,-23c30,-27 44,-29 80,-13c34,16 43,46 57,181c13,137 9,162 -31,183c-33,17 -36,17 -67,5z"></path><path d="M3498,2884c-38,-20 -42,-46 -29,-182c14,-135 23,-165 57,-181c36,-16 50,-14 80,13l28,23l-13,144c-8,79 -16,150 -18,157c-5,13 -55,42 -70,42c-4,-1 -20,-7 -35,-16z"></path><path d="M1451,2307c-30,-15 -32,-18 -86,-164c-25,-70 -42,-130 -38,-140c12,-36 36,-53 73,-53c49,0 59,14 107,140c59,155 61,164 25,200c-34,33 -45,36 -81,17z"></path><path d="M3589,2291c-26,-27 -30,-36 -24,-64c12,-51 86,-240 103,-259c20,-24 84,-24 105,0c26,28 21,69 -23,185c-22,58 -40,110 -40,115c0,15 -33,40 -62,47c-22,6 -33,1 -59,-24z"></path><path d="M855,830c-23,-25 -34,-89 -34,-201c-1,-106 14,-133 74,-133c61,0 71,21 78,171c6,114 4,131 -12,153c-24,34 -80,39 -106,10z"></path><path d="M4160,823c-19,-24 -21,-36 -16,-87c3,-32 6,-90 6,-128c0,-61 3,-72 26,-95c20,-20 31,-24 57,-19c62,12 70,35 64,175c-6,144 -19,174 -79,179c-29,3 -40,-2 -58,-25z"></path><path d="M868,325c-15,-8 -30,-24 -33,-36c-15,-45 28,-241 58,-269c45,-43 117,-9 117,54c0,28 -14,110 -36,213c-2,13 -18,29 -34,38c-35,18 -38,18 -72,0z"></path><path d="M4178,324c-16,-8 -28,-16 -28,-17c0,-1 -11,-54 -23,-118c-24,-121 -22,-150 11,-175c25,-19 65,-17 89,6c30,28 73,224 58,269c-6,19 -52,52 -72,51c-4,-1 -20,-8 -35,-16z"></path></g></g></g></svg>