<svg version="1.1" xmlns="http://www.w3.org/2000/svg" xmlns:xlink="http://www.w3.org/1999/xlink" width="512.000000pt" height="512.000000pt" viewBox="0,0,255.98958,255.98958"><g fill="#ffffff" fill-rule="nonzero" stroke="none" stroke-width="1" stroke-linecap="butt" stroke-linejoin="miter" stroke-miterlimit="10" stroke-dasharray="" stroke-dashoffset="0" font-family="none" font-weight="none" font-size="none" text-anchor="none" style="mix-blend-mode: normal"><g transform="translate(0.232,0.26987) scale(0.5,0.5)"><g transform="translate(0,512) scale(0.1,-0.1)"><path d="M3348,4923c-9,-10 -19,-40 -23,-68c-24,-174 -145,-389 -369,-659c-55,-67 -215,-238 -356,-381c-140,-143 -281,-294 -312,-335c-184,-244 -305,-506 -359,-781c-19,-92 -23,-147 -23,-284c0,-256 37,-412 161,-680c75,-160 143,-357 175,-501c17,-78 22,-134 22,-259c1,-190 -18,-277 -90,-415c-52,-101 -103,-162 -195,-236c-74,-59 -85,-86 -51,-117c31,-28 67,-20 134,30c113,86 211,224 267,373c36,96 53,191 59,330l7,134l40,10c79,19 386,11 617,-17c361,-44 509,-35 610,38c116,84 151,193 113,350c-23,95 -20,117 28,192c72,111 85,184 47,258c-20,38 -20,38 0,52c57,40 79,143 55,257c-9,43 -15,79 -13,81c2,1 22,12 46,24c57,29 116,83 136,125c37,78 13,151 -84,261c-126,142 -279,411 -315,554c-15,58 -15,75 -1,200c25,221 28,319 16,450c-26,282 -121,504 -271,633l-52,45l26,65c23,59 57,196 57,233c0,23 -37,55 -63,55c-13,0 -31,-8 -39,-17zM3354,4439c89,-77 168,-241 202,-415c23,-119 23,-383 0,-558c-20,-147 -17,-183 26,-305c55,-156 161,-342 271,-477c103,-127 117,-146 117,-169c0,-38 -76,-93 -173,-124c-49,-16 -55,-44 -29,-125c44,-134 38,-202 -19,-232c-42,-21 -163,-31 -280,-23c-109,8 -139,-2 -139,-49c0,-38 11,-51 51,-62c37,-11 284,-15 310,-5c23,9 59,-40 59,-79c0,-21 -17,-59 -50,-111c-28,-44 -53,-90 -57,-103c-6,-26 -1,-85 18,-189c10,-58 10,-79 0,-115c-16,-53 -76,-113 -128,-127c-62,-18 -235,-12 -474,14c-302,33 -444,39 -561,26c-53,-6 -102,-13 -110,-16c-10,-4 -19,19 -37,96c-31,139 -90,305 -170,484c-126,279 -156,402 -155,645c0,131 5,187 23,270c43,203 114,379 225,558c90,145 162,229 415,487c308,313 471,504 578,677c20,32 40,58 44,58c5,0 24,-14 43,-31z"></path><path d="M3086,3675c-102,-20 -204,-55 -274,-97c-64,-37 -186,-154 -194,-185c-9,-35 14,-68 49,-71c28,-3 40,6 101,67c51,52 88,80 143,105c117,56 178,69 328,71c117,2 136,4 147,20c19,25 17,48 -4,75c-15,19 -29,22 -117,26c-63,2 -129,-2 -179,-11z"></path><path d="M3370,3232c-9,-4 -32,-19 -51,-34c-19,-15 -62,-40 -94,-55c-54,-25 -70,-28 -170,-28c-94,0 -121,4 -181,27c-78,28 -109,24 -125,-18c-15,-41 11,-67 96,-98c112,-40 263,-48 362,-18c114,35 243,124 243,168c0,16 -44,64 -57,63c-4,0 -15,-3 -23,-7z"></path><path d="M2554,4303c-74,-121 -120,-165 -361,-346c-239,-180 -337,-263 -458,-389c-175,-182 -295,-376 -369,-595c-70,-204 -71,-214 -71,-753c0,-478 0,-486 -24,-580c-42,-167 -99,-296 -197,-448c-30,-45 -54,-88 -54,-95c0,-26 31,-57 58,-57c38,0 43,5 105,100c103,160 166,307 209,486c22,97 23,110 23,589c0,483 0,491 24,585c68,272 187,484 385,689c113,116 223,209 463,390c248,186 373,320 373,398c0,57 -76,75 -106,26z"></path><path d="M1697,1472c-13,-15 -17,-39 -17,-116c0,-279 -131,-548 -396,-813c-56,-56 -105,-111 -109,-122c-7,-23 33,-71 59,-71c23,0 107,71 186,158c184,203 296,396 352,607c30,112 32,322 4,354c-23,26 -57,27 -79,3z"></path></g></g></g></svg>