<svg version="1.1" xmlns="http://www.w3.org/2000/svg" xmlns:xlink="http://www.w3.org/1999/xlink" width="512.000000pt" height="512.000000pt" viewBox="0,0,255.98958,255.98958"><g fill="#ffffff" fill-rule="nonzero" stroke="none" stroke-width="1" stroke-linecap="butt" stroke-linejoin="miter" stroke-miterlimit="10" stroke-dasharray="" stroke-dashoffset="0" font-family="none" font-weight="none" font-size="none" text-anchor="none" style="mix-blend-mode: normal"><g transform="translate(-0.05164,0.01875) scale(0.5,0.5)"><g transform="translate(0,512) scale(0.1,-0.1)"><path d="M805,5101c-95,-43 -104,-77 -105,-370v-235l-39,-65c-49,-82 -72,-148 -78,-227c-5,-53 -3,-64 16,-83c12,-12 34,-21 50,-21c48,0 70,27 82,99c7,43 27,95 64,167l55,104v234c0,129 3,241 6,250c5,14 35,16 229,16c170,0 225,-3 233,-13c7,-8 12,-116 14,-307l3,-295l28,-42c16,-23 39,-75 52,-117c13,-41 39,-99 59,-129c38,-57 151,-170 221,-222c69,-50 95,-78 95,-101c0,-29 -34,-70 -64,-78c-58,-14 -188,64 -336,202c-52,49 -105,94 -117,100c-30,17 -98,15 -133,-3c-46,-24 -66,-59 -111,-192c-52,-157 -52,-158 46,-436c41,-117 75,-228 75,-248c0,-71 -90,-108 -137,-56c-35,38 -292,530 -303,580c-6,28 -8,82 -4,128c8,89 -2,119 -42,138c-32,14 -89,-8 -99,-39c-4,-12 -7,-74 -7,-138c-1,-139 9,-173 101,-341l61,-112l4,-237c5,-324 46,-615 138,-977c47,-187 165,-547 237,-724c28,-69 50,-125 48,-127c-1,-1 -49,-25 -107,-54c-165,-82 -259,-171 -319,-301c-38,-81 -161,-525 -161,-580c0,-72 21,-120 75,-175c37,-37 62,-54 97,-62c72,-18 2446,-16 2470,2c39,30 40,92 0,122c-14,11 -194,13 -934,14h-917l-3,201c-3,197 -3,201 -27,220c-32,26 -73,24 -99,-4c-21,-22 -22,-32 -22,-220v-197h-216h-216l-29,29c-19,20 -29,40 -29,60c0,33 98,399 131,490c25,68 67,128 125,179c115,102 507,261 892,361l112,29v-42c0,-68 23,-137 70,-206c56,-84 267,-294 348,-347c118,-79 227,-79 344,0c131,87 354,326 394,422c8,21 18,68 21,105l6,67l96,-24c354,-89 793,-266 904,-363c59,-53 101,-112 126,-181c33,-91 131,-457 131,-490c0,-20 -10,-40 -29,-60l-29,-29h-216h-216v198c0,195 0,199 -23,220c-29,27 -67,28 -98,3c-24,-19 -24,-23 -27,-220l-3,-201h-138c-125,0 -141,-2 -165,-21c-36,-29 -36,-80 1,-109c26,-21 32,-21 472,-18c439,3 447,3 487,25c83,44 134,129 134,222c0,55 -123,499 -161,580c-60,130 -154,219 -319,301c-58,29 -106,53 -107,54c-2,2 20,58 48,127c121,298 241,699 298,999c57,296 73,438 77,697l4,242l61,112c110,201 113,217 94,577c-18,339 -28,387 -104,506l-31,50v240c0,212 -3,246 -19,281c-22,48 -44,69 -94,90c-53,22 -491,22 -545,0c-92,-39 -121,-98 -122,-247c0,-60 -3,-108 -6,-108c-3,0 -40,24 -82,54c-105,73 -184,116 -214,116c-30,0 -68,-38 -68,-69c0,-39 18,-59 89,-100c63,-37 186,-126 254,-183c24,-21 27,-30 27,-87c0,-50 -5,-74 -24,-105c-13,-23 -36,-79 -51,-125c-31,-96 -76,-156 -175,-239c-146,-121 -173,-147 -191,-186c-32,-70 -19,-166 28,-218c9,-10 14,-20 12,-22c-6,-6 -226,106 -329,166c-207,122 -437,297 -575,437c-119,122 -163,117 -255,-26c-30,-47 -91,-124 -136,-171l-80,-86l-65,49c-150,115 -214,193 -245,300c-9,33 -30,83 -45,111c-24,41 -29,62 -29,115c1,63 1,65 44,101c290,248 667,388 1045,388c93,0 282,-23 361,-45c79,-21 113,-19 138,8c36,38 25,89 -23,114c-31,16 -198,50 -307,62c-399,44 -809,-61 -1153,-294c-53,-36 -98,-65 -101,-65c-2,0 -4,47 -4,105c0,148 -27,206 -115,246c-35,16 -68,19 -280,19c-212,0 -245,-3 -280,-19zM4264,4954c3,-9 6,-118 6,-243c0,-244 3,-262 53,-344c61,-100 66,-127 81,-425c15,-285 12,-342 -20,-404c-78,-156 -268,-499 -283,-512c-49,-45 -131,-5 -131,64c0,19 34,132 76,250c41,118 78,235 81,260c4,35 -4,72 -36,171c-43,133 -64,170 -111,194c-35,18 -103,20 -133,4c-12,-7 -63,-51 -113,-99c-97,-92 -212,-175 -274,-196c-47,-16 -87,-6 -113,28c-18,24 -18,27 -2,62c10,22 43,55 84,85c84,63 189,172 226,235c16,27 39,81 52,119c12,39 35,89 50,111l28,41l3,295c2,191 7,299 14,307c8,10 63,13 233,13c194,0 224,-2 229,-16zM2301,4014c49,-60 307,-254 474,-355c245,-150 573,-298 802,-364c32,-9 88,-25 126,-36l67,-20v-312c0,-315 -6,-389 -43,-522c-48,-171 -153,-344 -297,-487c-175,-174 -374,-281 -622,-334c-115,-25 -370,-25 -488,0c-255,53 -455,160 -635,341c-180,179 -280,370 -320,610c-13,73 -15,171 -13,514l3,425l35,8c19,5 70,20 112,34c75,25 77,25 133,8c96,-27 182,-1 249,78c36,42 56,91 56,139c0,18 23,50 84,112c46,48 107,121 136,162l54,74l36,-29c20,-16 43,-37 51,-46zM1368,3633c-24,-6 -62,-17 -86,-23c-50,-13 -74,-44 -82,-109l-6,-46l-28,83l-28,82l33,98c17,53 34,100 36,105c2,4 49,-34 104,-85l99,-93zM3950,3717l34,-98l-44,-127c-24,-70 -44,-128 -44,-129c-3,-4 -327,89 -399,115c-76,28 -89,42 -38,42c69,0 265,127 386,249c32,34 62,57 66,53c3,-4 21,-51 39,-105zM978,2874c44,-21 126,-21 177,0c20,9 39,16 41,16c2,0 4,-60 4,-132c0,-236 40,-419 131,-603c114,-232 325,-448 562,-575l77,-42v-43v-43l-92,-22c-127,-30 -363,-102 -477,-145c-51,-19 -99,-35 -105,-35c-15,0 -114,250 -187,473c-127,385 -207,779 -234,1152l-6,90l36,-37c20,-20 53,-44 73,-54zM4245,2873c-27,-370 -108,-766 -234,-1150c-73,-223 -172,-473 -187,-473c-6,0 -54,16 -105,35c-114,43 -350,115 -476,145l-93,22v43v43l78,42c236,127 447,343 561,575c91,184 131,367 131,603c0,72 2,132 4,132c2,0 21,-7 41,-16c85,-35 187,-13 251,56c16,16 30,30 32,30c2,0 0,-39 -3,-87zM2210,1455c162,-42 348,-55 510,-35c80,10 224,40 263,55c16,7 17,-3 17,-124c0,-95 -4,-142 -15,-168c-44,-105 -302,-356 -395,-384c-35,-11 -44,-9 -97,16c-71,35 -271,230 -332,325l-41,63v140c0,121 2,138 15,133c9,-3 42,-13 75,-21z"></path><path d="M1653,3054c-20,-20 -24,-31 -19,-57c7,-38 39,-67 118,-106c152,-77 353,-59 481,42c46,36 58,62 45,100c-20,57 -67,61 -147,12c-112,-69 -212,-70 -337,-4c-41,21 -84,39 -95,39c-11,0 -31,-12 -46,-26z"></path><path d="M2867,3068c-23,-18 -36,-59 -27,-84c11,-28 74,-76 134,-102c143,-64 309,-49 443,37c70,45 87,83 59,126c-28,43 -59,42 -150,-4c-131,-68 -236,-65 -346,9c-48,32 -86,38 -113,18z"></path><path d="M2362,2780c-29,-27 -37,-81 -25,-161c17,-107 76,-174 177,-200c83,-21 181,19 233,96c29,43 50,152 39,208c-13,70 -69,96 -119,57c-22,-17 -25,-29 -29,-95c-4,-87 -25,-118 -78,-118c-53,0 -74,31 -78,118c-4,66 -7,78 -29,95c-33,25 -63,25 -91,0z"></path><path d="M2517,2285c-94,-24 -137,-91 -137,-214c0,-96 14,-135 63,-178c83,-73 190,-64 265,21c37,43 45,80 41,184c-4,68 -8,84 -32,115c-52,69 -119,93 -200,72zM2600,2071c0,-66 -18,-93 -48,-74c-25,15 -29,123 -6,140c12,9 22,9 35,2c15,-8 19,-21 19,-68z"></path></g></g></g></svg>